<!--?xml version="1.0" encoding="utf-8"?-->
<!-- Generator: Adobe Illustrator 18.1.1, SVG Export Plug-In . SVG Version: 6.00 Build 0)  -->

<svg version="1.1" id="_x31_0" xmlns="http://www.w3.org/2000/svg" xmlns:xlink="http://www.w3.org/1999/xlink" x="0px" y="0px" viewBox="0 0 512 512" style="width: 256px; height: 256px; opacity: 1;" xml:space="preserve">
<style type="text/css">
	.st0{fill:#374149;}
</style>
<g>
	<path class="st0" d="M175.974,344.48c-3.202-3.699-9.124-0.558-7.81,4.151c7.64,27.411,21.449,50.045,39.696,64.525l0.829,0.662
		l0.743,0.494l0.748,0.497c4.964,3.808,10.51,7.038,16.226,9.69c7.782,3.477,16.889,5.381,26.324,5.381h10.348
		c12.006,0,23.098-2.898,31.959-8.113c0.825-0.498,1.573-0.994,2.402-1.492c1.168-0.784,2.219-1.621,3.314-2.442
		c0.752-0.514,1.556-1.091,2.28-1.54c-0.049-0.008-0.093-0.02-0.142-0.033c0.053-0.04,0.122-0.085,0.174-0.125
		C251.546,406.033,206.85,380.114,175.974,344.48z" style="fill: rgb(75, 75, 75);"></path>
	<path class="st0" d="M213.196,78.798c-2.341,1.274-3.901,3.776-3.901,6.65c0,4.268,3.448,7.713,7.676,7.713
		c4.269,0,7.713-3.445,7.713-7.713c0-0.166,0-0.332-0.04-0.494L213.196,78.798z" style="fill: rgb(75, 75, 75);"></path>
	<path class="st0" d="M295.03,93.162c4.228,0,7.677-3.445,7.677-7.713c0-2.874-1.561-5.377-3.901-6.65l-11.448,6.157
		c-0.041,0.162-0.041,0.327-0.041,0.494C287.317,89.717,290.761,93.162,295.03,93.162z" style="fill: rgb(75, 75, 75);"></path>
	<path class="st0" d="M436.218,305.778c0-0.138-0.032-0.238-0.032-0.307c-0.069-0.275-0.069-0.376-0.069-0.376
		c-10.979-67.512-44.426-135.505-89.778-186.394V97.187c0-53.933-46.649-105.611-103.044-96.034
		c-12.066,2.05-22.306,6.1-31.09,11.561c-0.522,0.324-1.01,0.675-1.524,1.007c-2.163,1.414-4.253,2.902-6.226,4.495
		c-0.796,0.638-1.552,1.306-2.316,1.968c-1.577,1.378-3.101,2.802-4.556,4.29c-0.869,0.893-1.714,1.798-2.534,2.72
		c-1.233,1.386-2.418,2.814-3.554,4.277c-0.82,1.055-1.625,2.11-2.389,3.198c-1.055,1.492-2.05,3.024-3.015,4.58
		c-0.667,1.079-1.334,2.15-1.957,3.254c-0.998,1.758-1.928,3.57-2.826,5.401c-0.441,0.897-0.898,1.786-1.31,2.7
		c-1.023,2.239-1.961,4.531-2.85,6.856c-0.182,0.477-0.376,0.95-0.554,1.426c-6.827,18.571-9.568,39.494-9.568,59.815
		c-30.201,33.314-51.917,72.61-68.538,114.23c-11.901,29.793-31.943,75.447-19.121,107.151c3.97,9.27,11.905,16.449,21.789,18.914
		c8.958,36.935,27.528,72.197,54.378,97.914c-9.475,17.237-19.734,40.186-14.638,42.922c8.206,4.341,17.782,0,17.782,0l11.286,9.269
		c4.686,3.865,12.45,3.865,17.136,0l11.286-9.269c0,0,9.576,4.341,17.782,0c1.362-0.728,1.58-2.927,1.079-6.023
		c-0.045-0.393-0.061-0.744-0.126-1.181c13.287,3.715,27.525,5.522,42.655,5.118c10.866-0.303,21.202-1.77,31.046-4.143
		c1.366-0.303,2.741-0.578,4.099-0.914c-0.768,3.719-0.627,6.326,0.902,7.143c8.206,4.341,17.782,0,17.782,0l11.286,9.269
		c4.686,3.865,12.451,3.865,17.136,0l11.286-9.269c0,0,9.576,4.341,17.782,0c5.029-2.701-4.855-25.071-14.226-42.17
		c27.428-25.617,46.205-61.016,55.337-98.666c9.851-2.466,17.851-9.613,21.784-18.914
		C433.995,328.557,438.235,318.435,436.218,305.778z M383.275,318.192c-3.897,40.836-21.376,90.497-55.198,119.566
		c-3.626,3.145-7.49,6.055-11.525,8.687c-1.205,0.788-2.43,1.548-3.666,2.284c-14.766,8.76-31.838,12.871-49.006,12.871h-10.353
		c-13.724,0-27.391-2.64-39.89-8.311c-8.15-3.695-15.653-8.154-22.533-13.275c-0.994-0.716-1.985-1.468-2.975-2.256
		c-35.5-27.973-53.662-73.599-58.04-119.566l-1.059,0.413v-0.037c-5.712,2.187-11.395,4.382-17.103,6.602
		c-0.453,0.162-0.878,0.335-1.334,0.501c-0.274-0.97-0.441-2.005-0.574-3.056c-0.033-0.258-0.081-0.509-0.106-0.772
		c-0.808-8.654,2.579-19.537,4.241-26.736c6.84-29.101,18.227-57.252,31.53-83.96c6.362-12.814,13.222-27.824,22.334-39.68
		c0.258-0.336,0.526-0.659,0.784-0.99c1.176-1.488,2.373-2.939,3.626-4.306c21.343-23.223,47.368,3.901,72.266,6.876
		c13.683,1.642,27.908,0.647,41.078-3.557c10.19-3.25,19.286-11.391,29.65-13.271c2.47-0.453,4.79-0.554,6.982-0.36
		c0.016,0,0.032,0.004,0.048,0.004c2.159,0.198,4.184,0.683,6.1,1.407c0.041,0.016,0.081,0.032,0.122,0.048
		c11.614,4.467,19.003,17.73,25.43,28.487c14.193,23.733,25.819,49.518,35.056,75.58c6.258,17.718,17.236,42.821,13.986,62.281
		c-0.033,0.526-0.186,1.258-0.34,1.827c-0.028,0.061-0.024,0.126-0.052,0.182c-6.116-2.389-12.269-4.75-18.418-7.106v0.037
		l-0.715-0.279l-0.178-0.117c-0.004,0.012-0.008,0.028-0.008,0.044L383.275,318.192z M246.824,115.148l7.572-10.818
		c0.711-1.018,2.498-1.018,3.21,0l7.571,10.818c0.13,0.186,0.154,0.384,0.186,0.578c0.017,0.114,0.037,0.218,0.025,0.336
		c-0.098,0.731-0.805,1.378-1.815,1.378h-15.143c-1.01,0-1.718-0.647-1.814-1.378c-0.012-0.118,0.012-0.226,0.028-0.34
		C246.671,115.528,246.691,115.334,246.824,115.148z M252.577,135.032h0.004v0.17l3.42-0.065l3.419,0.065v-0.243
		c18.999-1.503,24.218-12.43,24.218-18.982c0-5.854-3.44-8.626-7.086-11.566l-0.869-0.703c-3.97-3.238-5.251-4.552-5.231-7.766
		v-0.315c0.218-5.655,1.059-12.386,2.365-18.954c1.961-9.876,7.587-16.465,17.196-20.151c2.426-0.93,5.094-1.403,7.927-1.403
		c1.459,0,2.967,0.126,4.499,0.376c7.474,1.201,13.667,6.71,16.372,13.781c3.42,8.942,5.299,18.453,5.299,27.912v30.031
		c-1.641,9.54-17.135,7.49-24.832,10.842c-12.669,5.562-22.714,11.57-36.09,13.134c-0.498,0.061-1.027,0.085-1.532,0.13
		c-1.613,0.146-3.238,0.27-4.956,0.278c-1.937,0.004-3.759-0.105-5.542-0.266c-0.303-0.028-0.622-0.041-0.926-0.073
		c-13.602-1.459-23.158-7.531-36.11-13.202c-7.798-3.42-22.848-1.54-24.865-10.842V97.187c0-9.629,1.94-19.318,5.478-28.398
		c3.076-7.89,10.704-13.614,19.169-13.671c0.053,0,0.105,0,0.158,0c2.834,0,5.502,0.473,7.927,1.403
		c9.609,3.686,15.236,10.275,17.196,20.151c1.306,6.569,2.146,13.299,2.365,18.821v0.473c0.021,3.19-1.261,4.503-5.23,7.742
		l-0.874,0.707c-3.642,2.935-7.086,5.708-7.086,11.562c0,5.817,4.18,15.054,18.414,18.106
		C248.559,134.49,250.451,134.838,252.577,135.032z" style="fill: rgb(75, 75, 75);"></path>
</g>
</svg>
